<?xml version="1.0" encoding="utf-8"?>
<!DOCTYPE svg
  PUBLIC '-//W3C//DTD SVG 1.0//EN'
  'http://www.w3.org/TR/2001/REC-SVG-20010904/DTD/svg10.dtd'>
<svg width="420" height="240" preserveAspectRatio="xMinYMin meet" viewBox="0 0 420 240" xmlns="http://www.w3.org/2000/svg" version="1.0" fill-rule="evenodd" xmlns:xlink="http://www.w3.org/1999/xlink">
	<title>...</title>
	<desc>...</desc>
	<clipPath id="clip">
		<rect x="0" y="0" width="420" height="240"/>
	</clipPath>
	<g id="group" transform="scale(1,-1) translate(0,-240)" style="clip-path: url(#clip)">
		<g transform="">
			<text x="15" y="212" style="font-family: Helvetica; font-size: 18px;fill: rgb(9%,21%,26%); stroke:none;" transform="translate(0,424) scale(1,-1)">Transforme letra por letra</text>
			<rect x="25" y="135" width="65" height="40" style="stroke: none; stroke-linecap: butt; stroke-width: 1; fill: rgb(90%,94%,90%); fill-rule: evenodd;"/>
			<text x="50.836" y="148" style="font-family: Helvetica; font-size: 16px;fill: rgb(9%,21%,26%); stroke:none;" transform="translate(0,296) scale(1,-1)">M</text>
			<path d="M 57,125 L 57,87 Z" style="stroke: rgb(81%,41%,21%); stroke-linecap: butt; stroke-width: 2;"/>
			<polygon points="57 87, 60.91469 95.10402, 53.08531 95.10402" style="stroke: none; stroke-linecap: butt; stroke-width: 1; fill: rgb(81%,41%,21%); fill-rule: evenodd;"/>
			<rect x="25" y="37" width="65" height="40" style="stroke: none; stroke-linecap: butt; stroke-width: 1; fill: rgb(92%,95%,97%); fill-rule: evenodd;"/>
			<text x="51.724000000000004" y="50" style="font-family: Helvetica; font-size: 16px;fill: rgb(9%,21%,26%); stroke:none;" transform="translate(0,100) scale(1,-1)">N</text>
			<rect x="125" y="135" width="65" height="40" style="stroke: none; stroke-linecap: butt; stroke-width: 1; fill: rgb(90%,94%,90%); fill-rule: evenodd;"/>
			<text x="152.164" y="148" style="font-family: Helvetica; font-size: 16px;fill: rgb(9%,21%,26%); stroke:none;" transform="translate(0,296) scale(1,-1)">A</text>
			<path d="M 157,125 L 157,87 Z" style="stroke: rgb(81%,41%,21%); stroke-linecap: butt; stroke-width: 2;"/>
			<polygon points="157 87, 160.9147 95.10402, 153.0853 95.10402" style="stroke: none; stroke-linecap: butt; stroke-width: 1; fill: rgb(81%,41%,21%); fill-rule: evenodd;"/>
			<rect x="125" y="37" width="65" height="40" style="stroke: none; stroke-linecap: butt; stroke-width: 1; fill: rgb(92%,95%,97%); fill-rule: evenodd;"/>
			<text x="152.164" y="50" style="font-family: Helvetica; font-size: 16px;fill: rgb(9%,21%,26%); stroke:none;" transform="translate(0,100) scale(1,-1)">B</text>
			<rect x="225" y="135" width="65" height="40" style="stroke: none; stroke-linecap: butt; stroke-width: 1; fill: rgb(90%,94%,90%); fill-rule: evenodd;"/>
			<text x="253.052" y="148" style="font-family: Helvetica; font-size: 16px;fill: rgb(9%,21%,26%); stroke:none;" transform="translate(0,296) scale(1,-1)">L</text>
			<path d="M 257,125 L 257,87 Z" style="stroke: rgb(81%,41%,21%); stroke-linecap: butt; stroke-width: 2;"/>
			<polygon points="257 87, 260.9147 95.10402, 253.0853 95.10402" style="stroke: none; stroke-linecap: butt; stroke-width: 1; fill: rgb(81%,41%,21%); fill-rule: evenodd;"/>
			<rect x="225" y="37" width="65" height="40" style="stroke: none; stroke-linecap: butt; stroke-width: 1; fill: rgb(92%,95%,97%); fill-rule: evenodd;"/>
			<text x="250.836" y="50" style="font-family: Helvetica; font-size: 16px;fill: rgb(9%,21%,26%); stroke:none;" transform="translate(0,100) scale(1,-1)">M</text>
			<rect x="325" y="135" width="65" height="40" style="stroke: none; stroke-linecap: butt; stroke-width: 1; fill: rgb(90%,94%,90%); fill-rule: evenodd;"/>
			<text x="352.164" y="148" style="font-family: Helvetica; font-size: 16px;fill: rgb(9%,21%,26%); stroke:none;" transform="translate(0,296) scale(1,-1)">A</text>
			<path d="M 357,125 L 357,87 Z" style="stroke: rgb(81%,41%,21%); stroke-linecap: butt; stroke-width: 2;"/>
			<polygon points="357 87, 360.9147 95.10402, 353.0853 95.10402" style="stroke: none; stroke-linecap: butt; stroke-width: 1; fill: rgb(81%,41%,21%); fill-rule: evenodd;"/>
			<rect x="325" y="37" width="65" height="40" style="stroke: none; stroke-linecap: butt; stroke-width: 1; fill: rgb(92%,95%,97%); fill-rule: evenodd;"/>
			<text x="352.164" y="50" style="font-family: Helvetica; font-size: 16px;fill: rgb(9%,21%,26%); stroke:none;" transform="translate(0,100) scale(1,-1)">B</text>
			<text x="55.696" y="12" style="font-family: Helvetica; font-size: 16px;fill: rgb(9%,21%,26%); stroke:none;" transform="translate(0,24) scale(1,-1)">Cada letra avança uma posição no alfabeto</text>
		</g>
	</g>
</svg>
