<?xml version="1.0" encoding="utf-8"?>
<!DOCTYPE svg
  PUBLIC '-//W3C//DTD SVG 1.0//EN'
  'http://www.w3.org/TR/2001/REC-SVG-20010904/DTD/svg10.dtd'>
<svg width="420" height="240" preserveAspectRatio="xMinYMin meet" viewBox="0 0 420 240" xmlns="http://www.w3.org/2000/svg" version="1.0" fill-rule="evenodd" xmlns:xlink="http://www.w3.org/1999/xlink">
	<title>...</title>
	<desc>...</desc>
	<clipPath id="clip">
		<rect x="0" y="0" width="420" height="240"/>
	</clipPath>
	<g id="group" transform="scale(1,-1) translate(0,-240)" style="clip-path: url(#clip)">
		<g transform="">
			<text x="15" y="212" style="font-family: Helvetica; font-size: 18px;fill: rgb(9%,21%,26%); stroke:none;" transform="translate(0,424) scale(1,-1)">A senha 213 satisfaz a condição?</text>
			<rect x="15" y="150" width="230" height="40" style="stroke: none; stroke-linecap: butt; stroke-width: 1; fill: rgb(92%,95%,97%); fill-rule: evenodd;"/>
			<text x="76.208" y="163" style="font-family: Helvetica; font-size: 16px;fill: rgb(9%,21%,26%); stroke:none;" transform="translate(0,326) scale(1,-1)">Começa com 1</text>
			<rect x="265" y="150" width="140" height="40" style="stroke: none; stroke-linecap: butt; stroke-width: 1; fill: rgb(91%,70%,27%); fill-rule: evenodd;"/>
			<text x="315.44" y="163" style="font-family: Helvetica; font-size: 16px;fill: rgb(9%,21%,26%); stroke:none;" transform="translate(0,326) scale(1,-1)">Falsa</text>
			<rect x="15" y="93" width="230" height="40" style="stroke: none; stroke-linecap: butt; stroke-width: 1; fill: rgb(92%,95%,97%); fill-rule: evenodd;"/>
			<text x="77.52" y="106" style="font-family: Helvetica; font-size: 16px;fill: rgb(9%,21%,26%); stroke:none;" transform="translate(0,212) scale(1,-1)">O segundo é 1</text>
			<rect x="265" y="93" width="140" height="40" style="stroke: none; stroke-linecap: butt; stroke-width: 1; fill: rgb(90%,94%,90%); fill-rule: evenodd;"/>
			<text x="295.872" y="106" style="font-family: Helvetica; font-size: 16px;fill: rgb(9%,21%,26%); stroke:none;" transform="translate(0,212) scale(1,-1)">Verdadeira</text>
			<rect x="15" y="36" width="230" height="40" style="stroke: none; stroke-linecap: butt; stroke-width: 1; fill: rgb(92%,95%,97%); fill-rule: evenodd;"/>
			<text x="76.656" y="49" style="font-family: Helvetica; font-size: 16px;fill: rgb(9%,21%,26%); stroke:none;" transform="translate(0,98) scale(1,-1)">Termina com 3</text>
			<rect x="265" y="36" width="140" height="40" style="stroke: none; stroke-linecap: butt; stroke-width: 1; fill: rgb(90%,94%,90%); fill-rule: evenodd;"/>
			<text x="295.872" y="49" style="font-family: Helvetica; font-size: 16px;fill: rgb(9%,21%,26%); stroke:none;" transform="translate(0,98) scale(1,-1)">Verdadeira</text>
		</g>
	</g>
</svg>
