<?xml version="1.0" encoding="utf-8"?>
<!DOCTYPE svg
  PUBLIC '-//W3C//DTD SVG 1.0//EN'
  'http://www.w3.org/TR/2001/REC-SVG-20010904/DTD/svg10.dtd'>
<svg width="420" height="240" preserveAspectRatio="xMinYMin meet" viewBox="0 0 420 240" xmlns="http://www.w3.org/2000/svg" version="1.0" fill-rule="evenodd" xmlns:xlink="http://www.w3.org/1999/xlink">
	<title>...</title>
	<desc>...</desc>
	<clipPath id="clip">
		<rect x="0" y="0" width="420" height="240"/>
	</clipPath>
	<g id="group" transform="scale(1,-1) translate(0,-240)" style="clip-path: url(#clip)">
		<g transform="">
			<text x="15" y="212" style="font-family: Helvetica; font-size: 18px;fill: rgb(9%,21%,26%); stroke:none;" transform="translate(0,424) scale(1,-1)">Da figura 1 até a figura 12</text>
			<path d="M 30,143 L 390,143 Z" style="stroke: rgb(13%,45%,35%); stroke-linecap: butt; stroke-width: 3;"/>
			<circle cx="30" cy="143" r="4" style="stroke: none; stroke-linecap: butt; stroke-width: 1; fill: rgb(13%,45%,35%); fill-rule: evenodd;"/>
			<text x="26.664" y="118" style="font-family: Helvetica; font-size: 12px;fill: rgb(9%,21%,26%); stroke:none;" transform="translate(0,236) scale(1,-1)">1</text>
			<circle cx="62" cy="143" r="4" style="stroke: none; stroke-linecap: butt; stroke-width: 1; fill: rgb(13%,45%,35%); fill-rule: evenodd;"/>
			<text x="58.664" y="118" style="font-family: Helvetica; font-size: 12px;fill: rgb(9%,21%,26%); stroke:none;" transform="translate(0,236) scale(1,-1)">2</text>
			<circle cx="94" cy="143" r="4" style="stroke: none; stroke-linecap: butt; stroke-width: 1; fill: rgb(13%,45%,35%); fill-rule: evenodd;"/>
			<text x="90.664" y="118" style="font-family: Helvetica; font-size: 12px;fill: rgb(9%,21%,26%); stroke:none;" transform="translate(0,236) scale(1,-1)">3</text>
			<circle cx="126" cy="143" r="4" style="stroke: none; stroke-linecap: butt; stroke-width: 1; fill: rgb(13%,45%,35%); fill-rule: evenodd;"/>
			<text x="122.664" y="118" style="font-family: Helvetica; font-size: 12px;fill: rgb(9%,21%,26%); stroke:none;" transform="translate(0,236) scale(1,-1)">4</text>
			<circle cx="158" cy="143" r="4" style="stroke: none; stroke-linecap: butt; stroke-width: 1; fill: rgb(13%,45%,35%); fill-rule: evenodd;"/>
			<text x="154.664" y="118" style="font-family: Helvetica; font-size: 12px;fill: rgb(9%,21%,26%); stroke:none;" transform="translate(0,236) scale(1,-1)">5</text>
			<circle cx="190" cy="143" r="4" style="stroke: none; stroke-linecap: butt; stroke-width: 1; fill: rgb(13%,45%,35%); fill-rule: evenodd;"/>
			<text x="186.664" y="118" style="font-family: Helvetica; font-size: 12px;fill: rgb(9%,21%,26%); stroke:none;" transform="translate(0,236) scale(1,-1)">6</text>
			<circle cx="222" cy="143" r="4" style="stroke: none; stroke-linecap: butt; stroke-width: 1; fill: rgb(13%,45%,35%); fill-rule: evenodd;"/>
			<text x="218.664" y="118" style="font-family: Helvetica; font-size: 12px;fill: rgb(9%,21%,26%); stroke:none;" transform="translate(0,236) scale(1,-1)">7</text>
			<circle cx="254" cy="143" r="4" style="stroke: none; stroke-linecap: butt; stroke-width: 1; fill: rgb(13%,45%,35%); fill-rule: evenodd;"/>
			<text x="250.664" y="118" style="font-family: Helvetica; font-size: 12px;fill: rgb(9%,21%,26%); stroke:none;" transform="translate(0,236) scale(1,-1)">8</text>
			<circle cx="286" cy="143" r="4" style="stroke: none; stroke-linecap: butt; stroke-width: 1; fill: rgb(13%,45%,35%); fill-rule: evenodd;"/>
			<text x="282.664" y="118" style="font-family: Helvetica; font-size: 12px;fill: rgb(9%,21%,26%); stroke:none;" transform="translate(0,236) scale(1,-1)">9</text>
			<circle cx="318" cy="143" r="4" style="stroke: none; stroke-linecap: butt; stroke-width: 1; fill: rgb(13%,45%,35%); fill-rule: evenodd;"/>
			<text x="311.328" y="118" style="font-family: Helvetica; font-size: 12px;fill: rgb(9%,21%,26%); stroke:none;" transform="translate(0,236) scale(1,-1)">10</text>
			<circle cx="350" cy="143" r="4" style="stroke: none; stroke-linecap: butt; stroke-width: 1; fill: rgb(13%,45%,35%); fill-rule: evenodd;"/>
			<text x="343.328" y="118" style="font-family: Helvetica; font-size: 12px;fill: rgb(9%,21%,26%); stroke:none;" transform="translate(0,236) scale(1,-1)">11</text>
			<circle cx="382" cy="143" r="4" style="stroke: none; stroke-linecap: butt; stroke-width: 1; fill: rgb(13%,45%,35%); fill-rule: evenodd;"/>
			<text x="375.328" y="118" style="font-family: Helvetica; font-size: 12px;fill: rgb(9%,21%,26%); stroke:none;" transform="translate(0,236) scale(1,-1)">12</text>
			<text x="30" y="166" style="font-family: Helvetica; font-size: 15px;fill: rgb(9%,21%,26%); stroke:none;" transform="translate(0,332) scale(1,-1)">4 pontos</text>
			<text x="321.12" y="166" style="font-family: Helvetica; font-size: 15px;fill: rgb(9%,21%,26%); stroke:none;" transform="translate(0,332) scale(1,-1)">37 pontos</text>
			<text x="136.33999999999997" y="72" style="font-family: Helvetica; font-size: 20px;fill: rgb(9%,21%,26%); stroke:none;" transform="translate(0,144) scale(1,-1)">11 passos de +3</text>
			<text x="132.30599999999998" y="28" style="font-family: Helvetica; font-size: 23px;fill: rgb(9%,21%,26%); stroke:none;" transform="translate(0,56) scale(1,-1)">4 + 11 × 3 = 37</text>
		</g>
	</g>
</svg>
